<svg width="22" height="22" viewBox="0 0 22 22" fill="none" xmlns="http://www.w3.org/2000/svg">
<g id="arrow-ios-downward">
<path id="Vector" d="M11.0038 14.6659C10.7896 14.6663 10.582 14.5917 10.4171 14.455L4.91709 9.8717C4.72989 9.7161 4.61216 9.49252 4.58982 9.25012C4.56747 9.00773 4.64233 8.76639 4.79792 8.57919C4.95351 8.392 5.1771 8.27427 5.41949 8.25193C5.66188 8.22958 5.90322 8.30443 6.09042 8.46003L11.0038 12.5667L15.9171 8.6067C16.0108 8.53055 16.1187 8.47369 16.2345 8.43938C16.3504 8.40506 16.4718 8.39398 16.5919 8.40676C16.712 8.41953 16.8284 8.45592 16.9344 8.51383C17.0404 8.57174 17.1339 8.65003 17.2096 8.74419C17.2935 8.83845 17.3571 8.94902 17.3963 9.06899C17.4356 9.18896 17.4496 9.31573 17.4375 9.44137C17.4255 9.56702 17.3876 9.68881 17.3263 9.79914C17.265 9.90947 17.1816 10.0059 17.0813 10.0825L11.5813 14.51C11.4116 14.6251 11.2083 14.68 11.0038 14.6659Z" fill="currentColor"/>
</g>
</svg>
