<svg width="63" height="63" viewBox="0 0 63 63" fill="none" xmlns="http://www.w3.org/2000/svg">
<circle cx="31" cy="31" r="31" stroke="currentColor"/>
<path d="M26.2561 19.5666C25.8929 19.9182 25.6888 20.395 25.6888 20.8922C25.6888 21.3894 25.8929 21.8662 26.2561 22.2178L35.8467 31.4991L26.2561 40.7803C25.9032 41.1339 25.7079 41.6076 25.7123 42.0992C25.7167 42.5908 25.9205 43.0611 26.2797 43.4087C26.6389 43.7564 27.1249 43.9535 27.6329 43.9578C28.1409 43.9621 28.6303 43.7731 28.9957 43.4316L39.9562 32.8247C40.3194 32.4731 40.5234 31.9962 40.5234 31.4991C40.5234 31.0019 40.3194 30.525 39.9562 30.1734L28.9957 19.5666C28.6324 19.215 28.1397 19.0176 27.6259 19.0176C27.1122 19.0176 26.6194 19.215 26.2561 19.5666Z" fill="currentColor"/>
</svg>
