<svg width="23" height="23" viewBox="0 0 23 23" fill="none" xmlns="http://www.w3.org/2000/svg">
<path d="M0 0.766667C0 0.563334 0.0807761 0.368329 0.224558 0.224551C0.368341 0.0807735 0.563351 0 0.76669 0H3.06676C3.23778 4.72443e-05 3.40388 0.0572711 3.53863 0.162571C3.67339 0.267871 3.76906 0.415202 3.81045 0.581133L4.43147 3.06667H22.234C22.3466 3.06677 22.4578 3.09166 22.5596 3.13958C22.6615 3.18749 22.7516 3.25725 22.8234 3.3439C22.8953 3.43055 22.9472 3.53196 22.9755 3.64093C23.0037 3.7499 23.0076 3.86375 22.9869 3.9744L20.6868 16.2411C20.654 16.4168 20.5607 16.5754 20.4232 16.6897C20.2858 16.8039 20.1127 16.8665 19.9339 16.8667H6.13352C5.95478 16.8665 5.78171 16.8039 5.64424 16.6897C5.50676 16.5754 5.41352 16.4168 5.38063 16.2411L3.0821 3.9974L2.46874 1.53333H0.76669C0.563351 1.53333 0.368341 1.45256 0.224558 1.30878C0.0807761 1.165 0 0.969999 0 0.766667ZM4.75655 4.6L6.76988 15.3333H19.2976L21.3109 4.6H4.75655ZM7.6669 16.8667C6.85355 16.8667 6.0735 17.1898 5.49838 17.7649C4.92325 18.34 4.60014 19.12 4.60014 19.9333C4.60014 20.7467 4.92325 21.5267 5.49838 22.1018C6.0735 22.6769 6.85355 23 7.6669 23C8.48026 23 9.2603 22.6769 9.83543 22.1018C10.4106 21.5267 10.7337 20.7467 10.7337 19.9333C10.7337 19.12 10.4106 18.34 9.83543 17.7649C9.2603 17.1898 8.48026 16.8667 7.6669 16.8667ZM18.4006 16.8667C17.5872 16.8667 16.8072 17.1898 16.232 17.7649C15.6569 18.34 15.3338 19.12 15.3338 19.9333C15.3338 20.7467 15.6569 21.5267 16.232 22.1018C16.8072 22.6769 17.5872 23 18.4006 23C19.2139 23 19.994 22.6769 20.5691 22.1018C21.1442 21.5267 21.4673 20.7467 21.4673 19.9333C21.4673 19.12 21.1442 18.34 20.5691 17.7649C19.994 17.1898 19.2139 16.8667 18.4006 16.8667ZM7.6669 18.4C8.07358 18.4 8.4636 18.5615 8.75117 18.8491C9.03873 19.1367 9.20028 19.5267 9.20028 19.9333C9.20028 20.34 9.03873 20.73 8.75117 21.0176C8.4636 21.3051 8.07358 21.4667 7.6669 21.4667C7.26023 21.4667 6.8702 21.3051 6.58264 21.0176C6.29508 20.73 6.13352 20.34 6.13352 19.9333C6.13352 19.5267 6.29508 19.1367 6.58264 18.8491C6.8702 18.5615 7.26023 18.4 7.6669 18.4ZM18.4006 18.4C18.8072 18.4 19.1973 18.5615 19.4848 18.8491C19.7724 19.1367 19.9339 19.5267 19.9339 19.9333C19.9339 20.34 19.7724 20.73 19.4848 21.0176C19.1973 21.3051 18.8072 21.4667 18.4006 21.4667C17.9939 21.4667 17.6039 21.3051 17.3163 21.0176C17.0287 20.73 16.8672 20.34 16.8672 19.9333C16.8672 19.5267 17.0287 19.1367 17.3163 18.8491C17.6039 18.5615 17.9939 18.4 18.4006 18.4Z" fill="black"/>
</svg>
