<svg width="63" height="63" viewBox="0 0 63 63" fill="none" xmlns="http://www.w3.org/2000/svg">
<circle cx="31.5" cy="31.5" r="30" fill="white" stroke="#043277" stroke-width="3"/>
<path d="M19.1719 39H14.1914V24.8594H19.2305C23.4883 24.8594 26.0859 27.5156 26.0859 31.9102C26.0859 36.3438 23.4883 39 19.1719 39ZM17.1211 36.4805H19.0547C21.75 36.4805 23.1562 35.0742 23.1562 31.9102C23.1562 28.7656 21.75 27.3789 19.0742 27.3789H17.1211V36.4805ZM28.2148 39V24.8594H31.1445V31.1289H31.3398L36.4766 24.8594H40.0117L34.7383 31.1875L40.0703 39H36.5547L32.6289 33.1602L31.1445 34.957V39H28.2148ZM40.9297 27.2812V24.8594H52.5117V27.2812H48.1758V39H45.2656V27.2812H40.9297Z" fill="#043277"/>
</svg>
