<svg xmlns="http://www.w3.org/2000/svg" width="20" height="21" viewBox="0 0 20 21" fill="none">
  <path d="M14.9231 14.3488L18.4675 17.9171L17.2965 19.0963L13.7529 15.5271C12.4343 16.5915 10.7943 17.1704 9.1044 17.168C4.99302 17.168 1.65625 13.808 1.65625 9.66797C1.65625 5.52797 4.99302 2.16797 9.1044 2.16797C13.2158 2.16797 16.5525 5.52797 16.5525 9.66797C16.5549 11.3696 15.98 13.0211 14.9231 14.3488ZM13.2629 13.7305C14.3132 12.6429 14.8998 11.185 14.8974 9.66797C14.8974 6.44547 12.3046 3.83464 9.1044 3.83464C5.90418 3.83464 3.31139 6.44547 3.31139 9.66797C3.31139 12.8905 5.90418 15.5013 9.1044 15.5013C10.6109 15.5037 12.0587 14.9131 13.1388 13.8555L13.2629 13.7305Z" fill="white"/>
</svg>