<svg width="23" height="23" viewBox="0 0 23 23" fill="none" xmlns="http://www.w3.org/2000/svg">
<path d="M0.802326 0.884642V0C0.589536 0 0.385461 0.093203 0.234996 0.259106C0.0845305 0.425008 0 0.65002 0 0.884642H0.802326ZM12.5698 0.884642H13.3721C13.3721 0.65002 13.2876 0.425008 13.1371 0.259106C12.9866 0.093203 12.7826 0 12.5698 0V0.884642ZM12.5698 7.96178V7.07714C12.357 7.07714 12.1529 7.17034 12.0024 7.33624C11.852 7.50215 11.7674 7.72716 11.7674 7.96178H12.5698ZM0.802326 1.76928H12.5698V0H0.802326V1.76928ZM11.7674 0.884642V19.757H13.3721V0.884642H11.7674ZM1.60465 17.398V0.884642H0V17.398H1.60465ZM12.5698 8.84642H17.9186V7.07714H12.5698V8.84642ZM21.3953 12.6799V17.398H23V12.6799H21.3953ZM13.3721 19.757V7.96178H11.7674V19.757H13.3721ZM18.8643 20.7997C18.7401 20.9367 18.5927 21.0453 18.4304 21.1194C18.2682 21.1935 18.0942 21.2317 17.9186 21.2317C17.743 21.2317 17.5691 21.1935 17.4068 21.1194C17.2445 21.0453 17.0971 20.9367 16.9729 20.7997L15.839 22.05C16.3907 22.6583 17.1389 23 17.9191 23C18.6993 23 19.4476 22.6583 19.9993 22.05L18.8643 20.7997ZM16.9729 18.7143C17.0971 18.5774 17.2445 18.4687 17.4068 18.3946C17.5691 18.3205 17.743 18.2823 17.9186 18.2823C18.0942 18.2823 18.2682 18.3205 18.4304 18.3946C18.5927 18.4687 18.7401 18.5774 18.8643 18.7143L19.9982 17.464C19.4465 16.8557 18.6983 16.514 17.9181 16.514C17.1379 16.514 16.3896 16.8557 15.8379 17.464L16.9729 18.7143ZM6.02707 20.7997C5.90289 20.9367 5.75547 21.0453 5.5932 21.1194C5.43094 21.1935 5.25703 21.2317 5.0814 21.2317C4.90576 21.2317 4.73185 21.1935 4.56959 21.1194C4.40733 21.0453 4.2599 20.9367 4.13572 20.7997L3.00177 22.05C3.55347 22.6583 4.30172 23 5.08193 23C5.86214 23 6.61039 22.6583 7.16209 22.05L6.02707 20.7997ZM4.13572 18.7143C4.2599 18.5774 4.40733 18.4687 4.56959 18.3946C4.73185 18.3205 4.90576 18.2823 5.0814 18.2823C5.25703 18.2823 5.43094 18.3205 5.5932 18.3946C5.75547 18.4687 5.90289 18.5774 6.02707 18.7143L7.16102 17.464C6.60932 16.8557 5.86107 16.514 5.08086 16.514C4.30065 16.514 3.5524 16.8557 3.0007 17.464L4.13572 18.7143ZM18.8643 18.7143C19.1253 19.0021 19.2558 19.3784 19.2558 19.757H20.8605C20.8605 18.9278 20.5727 18.0962 19.9993 17.4628L18.8643 18.7143ZM19.2558 19.757C19.2558 20.1356 19.1253 20.5119 18.8643 20.7997L19.9993 22.05C20.2728 21.7492 20.4888 21.3918 20.6367 20.9983C20.7847 20.6048 20.8607 20.183 20.8605 19.757H19.2558ZM15.7791 18.8724H12.5698V20.6416H15.7791V18.8724ZM16.9729 20.7997C16.8485 20.663 16.7498 20.5005 16.6826 20.3215C16.6154 20.1426 16.581 19.9507 16.5814 19.757H14.9767C14.9767 20.5862 15.2645 21.4178 15.8379 22.0512L16.9729 20.7997ZM16.5814 19.757C16.5814 19.3784 16.7119 19.0021 16.9729 18.7143L15.8379 17.464C15.5644 17.7648 15.3485 18.1222 15.2005 18.5157C15.0525 18.9092 14.9765 19.331 14.9767 19.757H16.5814ZM4.13572 20.7997C4.01127 20.663 3.9126 20.5005 3.8454 20.3215C3.7782 20.1426 3.7438 19.9507 3.74419 19.757H2.13953C2.13953 20.5862 2.4273 21.4178 3.0007 22.0512L4.13572 20.7997ZM3.74419 19.757C3.74419 19.3784 3.8747 19.0021 4.13572 18.7143L3.00177 17.464C2.72827 17.7649 2.51132 18.1223 2.36336 18.5157C2.2154 18.9092 2.13934 19.331 2.13953 19.757H3.74419ZM12.5698 18.8724H7.22093V20.6416H12.5698V18.8724ZM6.02707 18.7143C6.28809 19.0021 6.4186 19.3784 6.4186 19.757H8.02326C8.02326 18.9278 7.73549 18.0962 7.16209 17.4628L6.02707 18.7143ZM6.4186 19.757C6.4186 20.1356 6.28809 20.5119 6.02707 20.7997L7.16102 22.05C7.43452 21.7492 7.65147 21.3917 7.79943 20.9983C7.94739 20.6048 8.02345 20.183 8.02326 19.757H6.4186ZM21.3953 17.398C21.3953 18.2118 20.7963 18.8724 20.0581 18.8724V20.6416C20.8384 20.6416 21.5866 20.2999 22.1383 19.6916C22.6901 19.0833 23 18.2582 23 17.398H21.3953ZM17.9186 8.84642C18.8407 8.84642 19.725 9.2503 20.377 9.96921C21.0291 10.6881 21.3953 11.6632 21.3953 12.6799H23C23 11.1939 22.4646 9.76886 21.5117 8.71814C20.5587 7.66742 19.2663 7.07714 17.9186 7.07714V8.84642ZM0 17.398C0 18.2582 0.309945 19.0833 0.861651 19.6916C1.41336 20.2999 2.16163 20.6416 2.94186 20.6416V18.8724C2.20372 18.8724 1.60465 18.2118 1.60465 17.398H0Z" fill="black"/>
</svg>
