<svg width="22" height="22" viewBox="0 0 22 22" fill="none" xmlns="http://www.w3.org/2000/svg">
<g id="person-done">
<path id="Vector" d="M21.6135 1.52853C21.383 1.31488 21.0815 1.20647 20.7753 1.22709C20.4691 1.24772 20.1832 1.39569 19.9803 1.63853L17.8142 4.26631L17.0845 3.39853C16.8802 3.15541 16.5927 3.00789 16.2854 2.9884C15.978 2.96892 15.6759 3.07908 15.4455 3.29464C15.2151 3.5102 15.0752 3.81351 15.0568 4.13785C15.0383 4.46218 15.1427 4.78097 15.347 5.02408L16.9571 6.93075C17.0667 7.0589 17.2007 7.1611 17.3505 7.23062C17.5002 7.30013 17.6622 7.3354 17.8258 7.33408C17.9883 7.33214 18.1486 7.29414 18.2963 7.22254C18.444 7.15095 18.5757 7.04737 18.683 6.91853L21.7062 3.25186C21.9101 3.01017 22.0148 2.69304 21.9974 2.36998C21.9801 2.04693 21.842 1.74433 21.6135 1.52853Z" fill="currentColor"/>
<path id="Vector_2" d="M8.10983 9.77778C9.02621 9.77778 9.922 9.49105 10.6839 8.95385C11.4459 8.41665 12.0397 7.65312 12.3904 6.75979C12.7411 5.86646 12.8329 4.88347 12.6541 3.93512C12.4753 2.98676 12.034 2.11565 11.3861 1.43192C10.7381 0.748201 9.91251 0.28258 9.01374 0.0939408C8.11497 -0.094698 7.18338 0.00211826 6.33676 0.372147C5.49014 0.742175 4.76652 1.3688 4.25741 2.17277C3.7483 2.97674 3.47656 3.92196 3.47656 4.88889C3.47656 6.1855 3.96471 7.42901 4.83362 8.34586C5.70252 9.2627 6.88101 9.77778 8.10983 9.77778ZM8.10983 2.44445C8.56802 2.44445 9.01592 2.58781 9.39689 2.85641C9.77786 3.12501 10.0748 3.50678 10.2501 3.95344C10.4255 4.40011 10.4713 4.8916 10.382 5.36578C10.2926 5.83995 10.0719 6.27551 9.74794 6.61737C9.42395 6.95923 9.01117 7.19205 8.56179 7.28637C8.1124 7.38069 7.64661 7.33228 7.2233 7.14726C6.79999 6.96225 6.43818 6.64894 6.18362 6.24695C5.92907 5.84496 5.7932 5.37236 5.7932 4.88889C5.7932 4.24058 6.03727 3.61883 6.47173 3.16041C6.90618 2.70199 7.49542 2.44445 8.10983 2.44445Z" fill="currentColor"/>
<path id="Vector_3" d="M8.10822 12.2227C5.95779 12.2227 3.89543 13.124 2.37484 14.7285C0.854257 16.333 0 18.5091 0 20.7782C0 21.1024 0.122037 21.4132 0.339263 21.6425C0.55649 21.8717 0.851113 22.0004 1.15832 22.0004C1.46552 22.0004 1.76015 21.8717 1.97737 21.6425C2.1946 21.4132 2.31664 21.1024 2.31664 20.7782C2.31664 19.1574 2.92682 17.6031 4.01295 16.457C5.09909 15.3109 6.5722 14.6671 8.10822 14.6671C9.64425 14.6671 11.1174 15.3109 12.2035 16.457C13.2896 17.6031 13.8998 19.1574 13.8998 20.7782C13.8998 21.1024 14.0218 21.4132 14.2391 21.6425C14.4563 21.8717 14.7509 22.0004 15.0581 22.0004C15.3653 22.0004 15.66 21.8717 15.8772 21.6425C16.0944 21.4132 16.2164 21.1024 16.2164 20.7782C16.2164 18.5091 15.3622 16.333 13.8416 14.7285C12.321 13.124 10.2587 12.2227 8.10822 12.2227Z" fill="currentColor"/>
</g>
</svg>
