<svg width="22" height="22" viewBox="0 0 22 22" fill="none" xmlns="http://www.w3.org/2000/svg">
<g id="people">
<path id="Vector" d="M7.69688 9.77762C8.56711 9.77762 9.41781 9.49089 10.1414 8.9537C10.865 8.41652 11.4289 7.65299 11.7619 6.75968C12.095 5.86636 12.1821 4.88339 12.0123 3.93505C11.8426 2.98672 11.4235 2.11561 10.8081 1.4319C10.1928 0.748188 9.40879 0.282575 8.55527 0.0939393C7.70176 -0.0946965 6.81706 0.00211823 6.01307 0.37214C5.20907 0.742163 4.52189 1.36877 4.03841 2.17273C3.55493 2.97669 3.29688 3.9219 3.29688 4.88881C3.29688 6.1854 3.76044 7.42889 4.58561 8.34572C5.41076 9.26255 6.52992 9.77762 7.69688 9.77762Z" fill="currentColor"/>
<path id="Vector_2" d="M16.5031 12.2219C17.1558 12.2219 17.7938 12.0068 18.3365 11.6039C18.8792 11.2011 19.3022 10.6284 19.5519 9.95843C19.8017 9.28844 19.867 8.55121 19.7397 7.83996C19.6124 7.12871 19.2981 6.47538 18.8366 5.9626C18.3751 5.44981 17.7871 5.1006 17.1469 4.95913C16.5068 4.81765 15.8433 4.89026 15.2403 5.16778C14.6373 5.44529 14.1219 5.91525 13.7593 6.51822C13.3967 7.12119 13.2031 7.83009 13.2031 8.55528C13.2031 9.52772 13.5508 10.4603 14.1697 11.148C14.7885 11.8356 15.6279 12.2219 16.5031 12.2219Z" fill="currentColor"/>
<path id="Vector_3" d="M20.9 20.7782C21.1917 20.7782 21.4715 20.6495 21.6778 20.4202C21.8841 20.191 22 19.8802 22 19.556C21.9991 18.4137 21.7101 17.2946 21.1658 16.3256C20.6214 15.3566 19.8435 14.5765 18.9204 14.0738C17.9972 13.5711 16.9657 13.366 15.943 13.4817C14.9202 13.5974 13.9471 14.0292 13.134 14.7283C12.0566 13.5359 10.6855 12.7246 9.19361 12.3969C7.70175 12.0691 6.15595 12.2395 4.75115 12.8866C3.34635 13.5337 2.14545 14.6285 1.29992 16.0329C0.454376 17.4374 0.00205721 19.0885 0 20.7782C0 21.1024 0.115892 21.4132 0.322183 21.6424C0.528472 21.8717 0.808262 22.0004 1.1 22.0004H14.3C14.5917 22.0004 14.8715 21.8717 15.0778 21.6424C15.2841 21.4132 15.4 21.1024 15.4 20.7782" fill="currentColor"/>
</g>
</svg>
