<svg width="22" height="22" viewBox="0 0 22 22" fill="none" xmlns="http://www.w3.org/2000/svg">
<g id="Group 1000002508">
<path id="Vector" d="M15.6838 13.2628C15.6997 13.2348 15.7109 13.2043 15.717 13.1727L16.0728 11.2747C16.0955 11.1489 16.0672 11.0192 15.9942 10.9142C15.9213 10.8092 15.8096 10.7375 15.6838 10.7148C15.5579 10.6922 15.4282 10.7204 15.3232 10.7934C15.2182 10.8664 15.1465 10.9781 15.1239 11.1039L14.9483 12.0529C14.5533 11.3316 13.9631 10.7363 13.2453 10.3351C12.5274 9.934 11.7111 9.74329 10.8898 9.7849C10.0685 9.82651 9.27563 10.0987 8.60201 10.5704C7.92839 11.042 7.40134 11.694 7.0813 12.4515C7.03436 12.5679 7.03546 12.6982 7.08438 12.8138C7.13329 12.9294 7.22602 13.0209 7.34227 13.0683C7.40018 13.0923 7.46228 13.1045 7.52496 13.1044C7.58764 13.1042 7.64967 13.0916 7.70746 13.0674C7.76526 13.0431 7.81767 13.0076 7.86168 12.963C7.90568 12.9184 7.94041 12.8655 7.96385 12.8073C8.21938 12.1795 8.65886 11.6436 9.22455 11.2702C9.79024 10.8967 10.4557 10.7031 11.1334 10.7148C11.7328 10.712 12.3223 10.8677 12.8423 11.166C13.3622 11.4642 13.7941 11.8946 14.0942 12.4135L13.3113 12.2854C13.249 12.2754 13.1853 12.2778 13.124 12.2925C13.0626 12.3071 13.0047 12.3337 12.9536 12.3707C12.9025 12.4077 12.8591 12.4544 12.8261 12.5082C12.793 12.5619 12.7709 12.6216 12.7609 12.684C12.7509 12.7463 12.7533 12.8099 12.768 12.8713C12.7826 12.9327 12.8092 12.9906 12.8462 13.0417C12.8832 13.0928 12.9299 13.1361 12.9837 13.1692C13.0374 13.2022 13.0972 13.2244 13.1595 13.2344L15.1761 13.5712H15.252C15.307 13.5719 15.3618 13.5623 15.4133 13.5428C15.4307 13.5362 15.4467 13.5265 15.4607 13.5143C15.4948 13.5017 15.5267 13.4841 15.5556 13.4621L15.5936 13.4147C15.6182 13.3916 15.6405 13.3662 15.66 13.3387C15.6716 13.3147 15.6796 13.2891 15.6838 13.2628Z" fill="currentColor"/>
<path id="Vector_2" d="M14.8342 15.0188C14.776 14.9949 14.7137 14.9829 14.6508 14.9834C14.5879 14.9838 14.5257 14.9968 14.4678 15.0215C14.41 15.0463 14.3576 15.0822 14.3138 15.1274C14.27 15.1725 14.2356 15.2259 14.2127 15.2845C13.9553 15.9057 13.5175 16.4354 12.9558 16.8051C12.3941 17.1748 11.7344 17.3674 11.0621 17.358C10.4626 17.3608 9.87313 17.2052 9.3532 16.9069C8.83327 16.6086 8.40139 16.1782 8.10126 15.6593L8.88417 15.7874H8.96008C9.08593 15.7975 9.21061 15.7572 9.30672 15.6753C9.40282 15.5934 9.46246 15.4767 9.47253 15.3509C9.4826 15.2251 9.44226 15.1004 9.3604 15.0043C9.27853 14.9082 9.16184 14.8485 9.036 14.8385L7.01943 14.5111C6.96768 14.5015 6.91461 14.5015 6.86285 14.5111H6.82489C6.77119 14.5253 6.71999 14.5477 6.67306 14.5775C6.64107 14.6022 6.61236 14.6309 6.58765 14.6629L6.54495 14.7103C6.53028 14.7389 6.51913 14.7692 6.51173 14.8005C6.4951 14.8247 6.48379 14.8522 6.47852 14.8812L6.12265 16.7791C6.10741 16.8422 6.10527 16.9077 6.11635 16.9716C6.12743 17.0355 6.1515 17.0965 6.18707 17.1508C6.22265 17.205 6.26897 17.2514 6.32318 17.287C6.37739 17.3227 6.43833 17.3468 6.50224 17.358H6.58765C6.7 17.3598 6.80936 17.3217 6.89625 17.2505C6.98314 17.1792 7.04193 17.0794 7.06214 16.9689L7.2377 16.0199C7.63224 16.7414 8.22212 17.337 8.93969 17.7385C9.65725 18.1401 10.4735 18.3312 11.2947 18.2901C12.1159 18.249 12.909 17.9773 13.5828 17.5061C14.2567 17.0349 14.7842 16.3833 15.1047 15.6261C15.1482 15.5096 15.1442 15.3807 15.0936 15.2671C15.043 15.1536 14.9499 15.0644 14.8342 15.0188Z" fill="currentColor"/>
<path id="Vector_3" d="M16.4193 0C16.808 7.3372e-05 17.191 0.092806 17.5366 0.270506C17.8822 0.448205 18.1805 0.70575 18.4067 1.02178L18.5154 1.18678L21.4781 6.12456C21.7701 6.61151 21.945 7.15961 21.989 7.72567L22 8.01044V19.5556C22.0002 20.1723 21.7673 20.7662 21.3479 21.2184C20.9286 21.6706 20.3539 21.9476 19.7389 21.9939L19.5556 22H2.44444C1.82774 22.0002 1.23375 21.7673 0.781552 21.3479C0.329353 20.9286 0.0523641 20.3539 0.00611125 19.7389L0 19.5556V8.01044C3.84643e-05 7.44196 0.132261 6.88127 0.386222 6.37267L0.523111 6.12333L3.48333 1.18678C3.68329 0.85329 3.95992 0.572316 4.29026 0.367186C4.62059 0.162057 4.99509 0.0386913 5.38267 0.00733338L5.58067 0H16.4193ZM19.5556 8.55556H2.44444V19.5556H19.5556V8.55556ZM9.77778 2.44444H5.58067L3.38067 6.11111H9.77778V2.44444ZM16.4193 2.44444H12.2222V6.11111H18.6193L16.4193 2.44444Z" fill="currentColor"/>
</g>
</svg>
