<svg width="22" height="22" viewBox="0 0 22 22" fill="none" xmlns="http://www.w3.org/2000/svg">
<path id="Vector" d="M11.0005 0C8.27001 0 6.02875 1.90723 6.02875 4.23077V5.07692H1.11864L1.05699 5.87062L0.0626443 21.1014L0 22H22L21.9383 21.1005L20.944 5.86977L20.8814 5.07692H15.9722V4.23077C15.9722 1.90723 13.731 0 11.0005 0ZM11.0005 1.69231C11.7917 1.69231 12.5504 1.95975 13.1098 2.43581C13.6693 2.91186 13.9835 3.55753 13.9835 4.23077V5.07692H8.01745V4.23077C8.01745 3.55753 8.33173 2.91186 8.89116 2.43581C9.45059 1.95975 10.2093 1.69231 11.0005 1.69231ZM2.98305 6.76923H6.02875V9.30769H8.01745V6.76923H13.9835V9.30769H15.9722V6.76923H19.0179L19.888 20.3077H2.11399L2.98305 6.76923Z" fill="currentColor"/>
</svg>
