<svg width="22" height="22" viewBox="0 0 22 22" fill="none" xmlns="http://www.w3.org/2000/svg">
<path id="Vector" d="M19.5556 2.2H18.3333V0H15.8889V2.2H6.11111V0H3.66667V2.2H2.44444C1.08778 2.2 0.0122222 3.19 0.0122222 4.4L0 19.8C0 20.3835 0.257539 20.9431 0.715961 21.3556C1.17438 21.7682 1.79614 22 2.44444 22H19.5556C20.9 22 22 21.01 22 19.8V4.4C22 3.19 20.9 2.2 19.5556 2.2ZM19.5556 19.8H2.44444V8.8H19.5556V19.8ZM19.5556 6.6H2.44444V4.4H19.5556V6.6ZM11 12.1H17.1111V17.6H11V12.1Z" fill="currentColor"/>
</svg>
