<svg width="24" height="24" viewBox="0 0 24 24" fill="none" xmlns="http://www.w3.org/2000/svg">
<path id="Vector" d="M5.23077 12.0005V7.54998C5.24399 6.67515 5.4297 5.81153 5.77728 5.0086C6.12486 4.20567 6.62746 3.47921 7.25629 2.87084C7.88512 2.26248 8.62782 1.78417 9.44183 1.46332C10.2558 1.14247 11.1252 0.985385 12 1.00107C12.8748 0.985385 13.7442 1.14247 14.5582 1.46332C15.3722 1.78417 16.1149 2.26248 16.7437 2.87084C17.3725 3.47921 17.8751 4.20567 18.2227 5.0086C18.5703 5.81153 18.756 6.67515 18.7692 7.54998V12.0005M15.3846 20.8847C16.2823 20.8847 17.1432 20.5281 17.7779 19.8934C18.4126 19.2587 18.7692 18.3979 18.7692 17.5003V13.6928M15.3846 20.8847C15.3846 21.4457 15.1617 21.9838 14.765 22.3804C14.3683 22.7771 13.8303 23 13.2692 23H10.7308C10.1697 23 9.63168 22.7771 9.23497 22.3804C8.83825 21.9838 8.61538 21.4457 8.61538 20.8847C8.61538 20.3237 8.83825 19.7857 9.23497 19.389C9.63168 18.9923 10.1697 18.7694 10.7308 18.7694H13.2692C13.8303 18.7694 14.3683 18.9923 14.765 19.389C15.1617 19.7857 15.3846 20.3237 15.3846 20.8847ZM2.69231 9.4622H4.38462C4.60903 9.4622 4.82425 9.55134 4.98294 9.71002C5.14162 9.86869 5.23077 10.0839 5.23077 10.3083V15.385C5.23077 15.6094 5.14162 15.8246 4.98294 15.9833C4.82425 16.142 4.60903 16.2311 4.38462 16.2311H2.69231C2.24348 16.2311 1.81303 16.0528 1.49567 15.7355C1.1783 15.4181 1 14.9877 1 14.5389V11.1544C1 10.7056 1.1783 10.2752 1.49567 9.95784C1.81303 9.64048 2.24348 9.4622 2.69231 9.4622ZM21.3077 16.2311H19.6154C19.391 16.2311 19.1757 16.142 19.0171 15.9833C18.8584 15.8246 18.7692 15.6094 18.7692 15.385V10.3083C18.7692 10.0839 18.8584 9.86869 19.0171 9.71002C19.1757 9.55134 19.391 9.4622 19.6154 9.4622H21.3077C21.7565 9.4622 22.187 9.64048 22.5043 9.95784C22.8217 10.2752 23 10.7056 23 11.1544V14.5389C23 14.9877 22.8217 15.4181 22.5043 15.7355C22.187 16.0528 21.7565 16.2311 21.3077 16.2311Z" stroke="currentColor" stroke-width="2" stroke-linecap="round" stroke-linejoin="round"/>
</svg>
