<svg width="22" height="22" viewBox="0 0 22 22" fill="none" xmlns="http://www.w3.org/2000/svg">
<g id="settings-2">
<path id="&#60;Group&#62;" d="M12.034 22H9.955C9.46488 22 8.99483 21.8053 8.64827 21.4587C8.3017 21.1122 8.107 20.6421 8.107 20.152V18.953C8.10104 18.8824 8.07513 18.8149 8.03228 18.7584C7.98944 18.7019 7.93142 18.6588 7.865 18.634C7.79769 18.5909 7.71943 18.568 7.6395 18.568C7.55956 18.568 7.4813 18.5909 7.414 18.634L6.6 19.514C6.42925 19.6859 6.22618 19.8224 6.00246 19.9155C5.77875 20.0087 5.53882 20.0566 5.2965 20.0566C5.05418 20.0566 4.81425 20.0087 4.59054 19.9155C4.36682 19.8224 4.16375 19.6859 3.993 19.514L2.486 18.04C2.31156 17.8696 2.17302 17.666 2.07856 17.4411C1.9841 17.2163 1.93562 16.9749 1.936 16.731C1.93671 16.2322 2.13438 15.7538 2.486 15.4L3.3 14.586C3.3393 14.5254 3.36021 14.4547 3.36021 14.3825C3.36021 14.3103 3.3393 14.2396 3.3 14.179C3.234 14.014 3.124 13.893 2.97 13.893H1.848C1.35687 13.8901 0.886848 13.693 0.540594 13.3446C0.194339 12.9963 -8.59783e-06 12.5251 2.85279e-10 12.034V9.955C2.85278e-10 9.46488 0.194699 8.99483 0.541267 8.64827C0.887834 8.3017 1.35788 8.107 1.848 8.107H3.047C3.11764 8.10104 3.18513 8.07513 3.24161 8.03228C3.29809 7.98944 3.34123 7.93142 3.366 7.865C3.40912 7.79769 3.43204 7.71943 3.43204 7.6395C3.43204 7.55956 3.40912 7.4813 3.366 7.414L2.486 6.6C2.31405 6.42925 2.17759 6.22618 2.08446 6.00246C1.99134 5.77875 1.94339 5.53882 1.94339 5.2965C1.94339 5.05418 1.99134 4.81425 2.08446 4.59054C2.17759 4.36682 2.31405 4.16375 2.486 3.993L3.96 2.486C4.12874 2.31239 4.3305 2.17429 4.55342 2.07983C4.77634 1.98538 5.0159 1.93647 5.258 1.936C5.50687 1.93491 5.75351 1.98293 5.98379 2.0773C6.21408 2.17168 6.42348 2.31057 6.6 2.486L7.414 3.3C7.4746 3.3393 7.54528 3.36021 7.6175 3.36021C7.68972 3.36021 7.7604 3.3393 7.821 3.3C7.986 3.234 8.107 3.124 8.107 2.97V1.848C8.10991 1.35687 8.30705 0.886848 8.65536 0.540594C9.00368 0.194339 9.47486 -8.59783e-06 9.966 2.85279e-10H12.1C12.5901 2.85279e-10 13.0602 0.194699 13.4067 0.541267C13.7533 0.887834 13.948 1.35788 13.948 1.848V3.047C13.954 3.11764 13.9799 3.18513 14.0227 3.24161C14.0656 3.29809 14.1236 3.34123 14.19 3.366C14.2573 3.40912 14.3356 3.43204 14.4155 3.43204C14.4954 3.43204 14.5737 3.40912 14.641 3.366L15.4 2.486C15.5707 2.31405 15.7738 2.17759 15.9975 2.08446C16.2213 1.99134 16.4612 1.94339 16.7035 1.94339C16.9458 1.94339 17.1857 1.99134 17.4095 2.08446C17.6332 2.17759 17.8363 2.31405 18.007 2.486L19.514 3.96C19.6879 4.13078 19.8262 4.33448 19.9206 4.55921C20.015 4.78395 20.0638 5.02523 20.064 5.269C20.0693 5.51682 20.0232 5.76306 19.9285 5.99215C19.8338 6.22124 19.6927 6.42821 19.514 6.6L18.7 7.414C18.6607 7.4746 18.6398 7.54528 18.6398 7.6175C18.6398 7.68972 18.6607 7.7604 18.7 7.821C18.766 7.986 18.876 8.107 19.03 8.107H20.229C20.7066 8.12963 21.1572 8.33544 21.487 8.68165C21.8168 9.02785 22.0005 9.48784 22 9.966V12.1C22 12.5901 21.8053 13.0602 21.4587 13.4067C21.1122 13.7533 20.6421 13.948 20.152 13.948H18.953C18.8824 13.954 18.8149 13.9799 18.7584 14.0227C18.7019 14.0656 18.6588 14.1236 18.634 14.19C18.5947 14.2506 18.5738 14.3213 18.5738 14.3935C18.5738 14.4657 18.5947 14.5364 18.634 14.597L19.481 15.444C19.6529 15.6147 19.7894 15.8178 19.8825 16.0415C19.9757 16.2652 20.0236 16.5052 20.0236 16.7475C20.0236 16.9898 19.9757 17.2297 19.8825 17.4535C19.7894 17.6772 19.6529 17.8803 19.481 18.051L18.04 19.514C17.8713 19.6876 17.6695 19.8257 17.4466 19.9202C17.2237 20.0146 16.9841 20.0635 16.742 20.064C16.2508 20.0575 15.7814 19.8603 15.433 19.514L14.586 18.7C14.5254 18.6607 14.4547 18.6398 14.3825 18.6398C14.3103 18.6398 14.2396 18.6607 14.179 18.7C14.014 18.766 13.893 18.876 13.893 19.03V20.229C13.8704 20.7066 13.6646 21.1572 13.3184 21.487C12.9721 21.8168 12.5122 22.0005 12.034 22ZM10.307 19.8H11.693V18.953C11.6977 18.4457 11.8528 17.9513 12.1387 17.5322C12.4246 17.1132 12.8284 16.7884 13.299 16.599C13.7715 16.3925 14.2949 16.3313 14.8023 16.4234C15.3097 16.5155 15.7782 16.7566 16.148 17.116L16.742 17.71L17.71 16.742L17.116 16.137C16.7589 15.7728 16.518 15.3106 16.424 14.8093C16.33 14.3079 16.3871 13.7899 16.588 13.321C16.7791 12.8525 17.1046 12.451 17.5235 12.1671C17.9424 11.8833 18.436 11.7298 18.942 11.726H19.8V10.307H18.953C18.4457 10.3023 17.9513 10.1472 17.5322 9.86131C17.1132 9.57542 16.7884 9.1716 16.599 8.701C16.3925 8.22847 16.3313 7.70513 16.4234 7.19772C16.5155 6.69031 16.7566 6.22182 17.116 5.852L17.71 5.258L16.742 4.29L16.137 4.884C15.7671 5.22188 15.3084 5.44703 14.8148 5.53295C14.3212 5.61886 13.8134 5.56196 13.3511 5.36894C12.8887 5.17593 12.4912 4.85483 12.2053 4.44347C11.9193 4.0321 11.7568 3.5476 11.737 3.047V2.2H10.307V3.047C10.3023 3.55426 10.1472 4.04872 9.86131 4.46777C9.57542 4.88682 9.1716 5.21161 8.701 5.401C8.22847 5.60755 7.70513 5.66868 7.19772 5.5766C6.69031 5.48452 6.22182 5.24341 5.852 4.884L5.258 4.29L4.29 5.258L4.884 5.863C5.22188 6.2329 5.44703 6.69165 5.53295 7.18521C5.61886 7.67878 5.56196 8.18662 5.36894 8.64894C5.17593 9.11125 4.85483 9.50879 4.44347 9.79475C4.0321 10.0807 3.5476 10.2432 3.047 10.263H2.2V11.649H3.047C3.55426 11.6537 4.04872 11.8088 4.46777 12.0947C4.88682 12.3806 5.21161 12.7844 5.401 13.255C5.60755 13.7275 5.66868 14.2509 5.5766 14.7583C5.48452 15.2657 5.24341 15.7342 4.884 16.104L4.29 16.698L5.258 17.666L5.863 17.072C6.2329 16.7341 6.69165 16.509 7.18521 16.4231C7.67878 16.3371 8.18662 16.394 8.64894 16.5871C9.11125 16.7801 9.50879 17.1012 9.79475 17.5125C10.0807 17.9239 10.2432 18.4084 10.263 18.909L10.307 19.8Z" fill="currentColor"/>
<path id="Vector" d="M10.9984 14.8504C10.237 14.8504 9.49262 14.6246 8.85949 14.2016C8.22636 13.7785 7.7329 13.1772 7.4415 12.4737C7.15011 11.7702 7.07386 10.9961 7.22242 10.2493C7.37097 9.50247 7.73765 8.81646 8.27608 8.27803C8.81451 7.7396 9.50051 7.37292 10.2473 7.22437C10.9942 7.07582 11.7683 7.15206 12.4718 7.44346C13.1753 7.73485 13.7766 8.22832 14.1996 8.86145C14.6226 9.49458 14.8484 10.2389 14.8484 11.0004C14.8484 12.0215 14.4428 13.0007 13.7208 13.7228C12.9988 14.4448 12.0195 14.8504 10.9984 14.8504ZM10.9984 9.35039C10.6721 9.35039 10.3531 9.44716 10.0817 9.62847C9.81041 9.80977 9.59892 10.0675 9.47404 10.369C9.34915 10.6705 9.31648 11.0022 9.38014 11.3223C9.44381 11.6424 9.60096 11.9364 9.83171 12.1671C10.0625 12.3979 10.3565 12.555 10.6765 12.6187C10.9966 12.6824 11.3284 12.6497 11.6299 12.5248C11.9314 12.3999 12.1891 12.1884 12.3704 11.9171C12.5517 11.6457 12.6484 11.3267 12.6484 11.0004C12.6484 10.5628 12.4746 10.1431 12.1652 9.83367C11.8557 9.52423 11.436 9.35039 10.9984 9.35039Z" fill="currentColor"/>
</g>
</svg>
