<svg width="24" height="24" viewBox="0 0 24 24" fill="none" xmlns="http://www.w3.org/2000/svg">
<g id="Group">
<path id="Vector" d="M21.1667 1H2.83333C1.82081 1 1 1.82084 1 2.83339V16.2783C1 17.2908 1.82081 18.1117 2.83333 18.1117H21.1667C22.1792 18.1117 23 17.2908 23 16.2783V2.83339C23 1.82084 22.1792 1 21.1667 1Z" stroke="currentColor" stroke-width="2" stroke-linejoin="round"/>
<path id="Vector_2" d="M5.89062 23.0004H18.1128M12.0017 18.1113V23.0004" stroke="currentColor" stroke-width="2" stroke-linecap="round" stroke-linejoin="round"/>
<g id="bar-chart-2">
<path id="Vector_3" d="M11.4314 6.73633C11.2693 6.73633 11.1139 6.80072 10.9993 6.91532C10.8847 7.02993 10.8203 7.18538 10.8203 7.34746V14.0699C10.8203 14.232 10.8847 14.3874 10.9993 14.502C11.1139 14.6167 11.2693 14.681 11.4314 14.681C11.5935 14.681 11.7489 14.6167 11.8635 14.502C11.9781 14.3874 12.0425 14.232 12.0425 14.0699V7.34746C12.0425 7.18538 11.9781 7.02993 11.8635 6.91532C11.7489 6.80072 11.5935 6.73633 11.4314 6.73633Z" fill="currentColor"/>
<path id="Vector_4" d="M15.7049 4.28906C15.5428 4.28906 15.3873 4.35345 15.2727 4.46806C15.1581 4.58267 15.0938 4.73811 15.0938 4.90019V14.0672C15.0938 14.2292 15.1581 14.3847 15.2727 14.4993C15.3873 14.6139 15.5428 14.6783 15.7049 14.6783C15.8669 14.6783 16.0224 14.6139 16.137 14.4993C16.2516 14.3847 16.316 14.2292 16.316 14.0672V4.90019C16.316 4.73811 16.2516 4.58267 16.137 4.46806C16.0224 4.35345 15.8669 4.28906 15.7049 4.28906Z" fill="currentColor"/>
<path id="Vector_5" d="M7.15017 9.17969C6.9881 9.17969 6.83266 9.24407 6.71805 9.35868C6.60345 9.47329 6.53906 9.62874 6.53906 9.79082V14.0687C6.53906 14.2308 6.60345 14.3863 6.71805 14.5009C6.83266 14.6155 6.9881 14.6799 7.15017 14.6799C7.31225 14.6799 7.46769 14.6155 7.58229 14.5009C7.6969 14.3863 7.76128 14.2308 7.76128 14.0687V9.79082C7.76128 9.62874 7.6969 9.47329 7.58229 9.35868C7.46769 9.24407 7.31225 9.17969 7.15017 9.17969Z" fill="currentColor"/>
</g>
</g>
</svg>
