<svg xmlns="http://www.w3.org/2000/svg" width="30" height="25" viewBox="0 0 30 25" fill="none">
<path d="M27.8679 11.9648H1.92899C1.08369 11.9648 0.398438 12.5117 0.398438 13.1863V13.3148C0.398438 13.9894 1.08369 14.5363 1.92899 14.5363H27.8679C28.7132 14.5363 29.3984 13.9894 29.3984 13.3148V13.1863C29.3984 12.5117 28.7132 11.9648 27.8679 11.9648Z" fill="currentColor"/>
<path d="M27.8679 22.25H1.92899C1.08369 22.25 0.398438 22.7969 0.398438 23.4714V23.6C0.398438 24.2746 1.08369 24.8214 1.92899 24.8214H27.8679C28.7132 24.8214 29.3984 24.2746 29.3984 23.6V23.4714C29.3984 22.7969 28.7132 22.25 27.8679 22.25Z" fill="currentColor"/>
<path d="M27.8679 0.822266H1.92899C1.08369 0.822266 0.398438 1.36912 0.398438 2.04369V2.17227C0.398438 2.84684 1.08369 3.39369 1.92899 3.39369H14.8984H27.8679C28.7132 3.39369 29.3984 2.84684 29.3984 2.17227V2.04369C29.3984 1.36912 28.7132 0.822266 27.8679 0.822266Z" fill="currentColor"/>
</svg>